<svg width="136" height="44" viewBox="0 0 136 44" fill="none" xmlns="http://www.w3.org/2000/svg">
<rect x="0.5" y="0.5" width="135" height="43" rx="19.5" fill="#F7F7F7" stroke="black"/>
<path d="M113.846 18.4582C113.846 18.6623 113.765 18.858 113.621 19.0022C113.477 19.1465 113.281 19.2276 113.077 19.2276H106.923C106.719 19.2276 106.523 19.1465 106.379 19.0022C106.235 18.858 106.154 18.6623 106.154 18.4582C106.154 18.2542 106.235 18.0585 106.379 17.9143C106.523 17.77 106.719 17.6889 106.923 17.6889H113.077C113.281 17.6889 113.477 17.77 113.621 17.9143C113.765 18.0585 113.846 18.2542 113.846 18.4582ZM113.077 20.7662H106.923C106.719 20.7662 106.523 20.8472 106.379 20.9915C106.235 21.1358 106.154 21.3314 106.154 21.5355C106.154 21.7395 106.235 21.9352 106.379 22.0794C106.523 22.2237 106.719 22.3048 106.923 22.3048H113.077C113.281 22.3048 113.477 22.2237 113.621 22.0794C113.765 21.9352 113.846 21.7395 113.846 21.5355C113.846 21.3314 113.765 21.1358 113.621 20.9915C113.477 20.8472 113.281 20.7662 113.077 20.7662ZM120 19.9969C120 21.7235 119.554 23.4208 118.704 24.9236C117.853 26.4264 116.629 27.6835 115.149 28.5725C113.669 29.4615 111.984 29.9522 110.258 29.9967C108.532 30.0412 106.824 29.6381 105.3 28.8265L102.026 29.918C101.755 30.0084 101.464 30.0215 101.186 29.9559C100.908 29.8903 100.653 29.7484 100.451 29.5464C100.249 29.3443 100.108 29.0899 100.042 28.8118C99.9763 28.5337 99.9894 28.2428 100.08 27.9717L101.171 24.6973C100.458 23.3561 100.059 21.8699 100.006 20.3517C99.9529 18.8334 100.246 17.323 100.864 15.9351C101.481 14.5471 102.407 13.3181 103.57 12.3413C104.734 11.3645 106.104 10.6657 107.578 10.2977C109.052 9.92981 110.59 9.90251 112.076 10.2179C113.562 10.5333 114.957 11.1831 116.154 12.118C117.351 13.0529 118.32 14.2483 118.986 15.6135C119.653 16.9786 119.999 18.4777 120 19.9969ZM118.462 19.9969C118.461 18.6988 118.162 17.4182 117.588 16.2541C117.013 15.0901 116.179 14.0738 115.149 13.2839C114.119 12.4941 112.921 11.9517 111.648 11.6989C110.375 11.4461 109.061 11.4896 107.807 11.8261C106.553 12.1625 105.394 12.7829 104.418 13.6391C103.443 14.4954 102.677 15.5646 102.181 16.7641C101.685 17.9636 101.471 19.2612 101.557 20.5564C101.642 21.8517 102.025 23.1099 102.674 24.2338C102.729 24.3282 102.762 24.433 102.773 24.5414C102.784 24.6499 102.772 24.7594 102.737 24.8627L101.538 28.4592L105.135 27.2601C105.213 27.2333 105.295 27.2197 105.378 27.2197C105.513 27.2199 105.646 27.2557 105.762 27.3235C107.049 28.0678 108.509 28.4602 109.995 28.4611C111.481 28.4621 112.941 28.0716 114.228 27.3289C115.516 26.5862 116.585 25.5175 117.328 24.2304C118.071 22.9433 118.462 21.4831 118.462 19.9969Z" fill="black"/>
<path d="M19.9201 21H18.8633C18.8008 20.696 18.6914 20.429 18.5352 20.1989C18.3818 19.9688 18.1943 19.7756 17.9727 19.6193C17.7539 19.4602 17.511 19.3409 17.244 19.2614C16.9769 19.1818 16.6985 19.142 16.4088 19.142C15.8803 19.142 15.4017 19.2756 14.9727 19.5426C14.5465 19.8097 14.2071 20.2031 13.9542 20.723C13.7042 21.2429 13.5792 21.8807 13.5792 22.6364C13.5792 23.392 13.7042 24.0298 13.9542 24.5497C14.2071 25.0696 14.5465 25.4631 14.9727 25.7301C15.4017 25.9972 15.8803 26.1307 16.4088 26.1307C16.6985 26.1307 16.9769 26.0909 17.244 26.0114C17.511 25.9318 17.7539 25.8139 17.9727 25.6577C18.1943 25.4986 18.3818 25.304 18.5352 25.0739C18.6914 24.8409 18.8008 24.5739 18.8633 24.2727H19.9201C19.8406 24.7187 19.6957 25.1179 19.4855 25.4702C19.2752 25.8224 19.0139 26.1222 18.7014 26.3693C18.3889 26.6136 18.038 26.7997 17.6488 26.9276C17.2625 27.0554 16.8491 27.1193 16.4088 27.1193C15.6644 27.1193 15.0025 26.9375 14.423 26.5739C13.8434 26.2102 13.3875 25.6932 13.0551 25.0227C12.7227 24.3523 12.5565 23.5568 12.5565 22.6364C12.5565 21.7159 12.7227 20.9205 13.0551 20.25C13.3875 19.5795 13.8434 19.0625 14.423 18.6989C15.0025 18.3352 15.6644 18.1534 16.4088 18.1534C16.8491 18.1534 17.2625 18.2173 17.6488 18.3452C18.038 18.473 18.3889 18.6605 18.7014 18.9077C19.0139 19.152 19.2752 19.4503 19.4855 19.8026C19.6957 20.152 19.8406 20.5511 19.9201 21ZM22.4972 23.0625V27H21.4915V18.2727H22.4972V21.4773H22.5824C22.7358 21.1392 22.9659 20.8707 23.2727 20.6719C23.5824 20.4702 23.9943 20.3693 24.5085 20.3693C24.9546 20.3693 25.3452 20.4588 25.6804 20.6378C26.0156 20.8139 26.2756 21.0852 26.4602 21.4517C26.6477 21.8153 26.7415 22.2784 26.7415 22.8409V27H25.7358V22.9091C25.7358 22.3892 25.6009 21.9872 25.331 21.7031C25.0639 21.4162 24.6932 21.2727 24.2188 21.2727C23.8892 21.2727 23.5938 21.3423 23.3324 21.4815C23.0739 21.6207 22.8693 21.8239 22.7188 22.0909C22.571 22.358 22.4972 22.6818 22.4972 23.0625ZM30.5075 27.1534C30.0927 27.1534 29.7163 27.0753 29.3782 26.919C29.0402 26.7599 28.7717 26.5312 28.5728 26.233C28.374 25.9318 28.2745 25.5682 28.2745 25.142C28.2745 24.767 28.3484 24.4631 28.4961 24.2301C28.6438 23.9943 28.8413 23.8097 29.0884 23.6761C29.3356 23.5426 29.6083 23.4432 29.9066 23.3778C30.2078 23.3097 30.5103 23.2557 30.8143 23.2159C31.212 23.1648 31.5345 23.1264 31.7816 23.1009C32.0316 23.0724 32.2134 23.0256 32.3271 22.9602C32.4436 22.8949 32.5018 22.7812 32.5018 22.6193V22.5852C32.5018 22.1648 32.3867 21.8381 32.1566 21.6051C31.9294 21.3722 31.5842 21.2557 31.1211 21.2557C30.641 21.2557 30.2646 21.3608 29.9919 21.571C29.7191 21.7812 29.5274 22.0057 29.4166 22.2443L28.462 21.9034C28.6325 21.5057 28.8598 21.196 29.1438 20.9744C29.4308 20.75 29.7433 20.5937 30.0813 20.5057C30.4223 20.4148 30.7575 20.3693 31.087 20.3693C31.2973 20.3693 31.5387 20.3949 31.8115 20.446C32.087 20.4943 32.3527 20.5952 32.6083 20.7486C32.8669 20.902 33.0813 21.1335 33.2518 21.4432C33.4223 21.7528 33.5075 22.1676 33.5075 22.6875V27H32.5018V26.1136H32.4507C32.3825 26.2557 32.2688 26.4077 32.1098 26.5696C31.9507 26.7315 31.739 26.8693 31.4748 26.983C31.2106 27.0966 30.8882 27.1534 30.5075 27.1534ZM30.6609 26.25C31.0586 26.25 31.3938 26.1719 31.6666 26.0156C31.9421 25.8594 32.1495 25.6577 32.2887 25.4105C32.4308 25.1634 32.5018 24.9034 32.5018 24.6307V23.7102C32.4592 23.7614 32.3654 23.8082 32.2205 23.8509C32.0785 23.8906 31.9137 23.9261 31.7262 23.9574C31.5416 23.9858 31.3612 24.0114 31.185 24.0341C31.0117 24.054 30.8711 24.071 30.7632 24.0852C30.5018 24.1193 30.2575 24.1747 30.0302 24.2514C29.8058 24.3253 29.624 24.4375 29.4848 24.5881C29.3484 24.7358 29.2802 24.9375 29.2802 25.1932C29.2802 25.5426 29.4095 25.8068 29.668 25.9858C29.9294 26.1619 30.2603 26.25 30.6609 26.25ZM38.1897 20.4545V21.3068H34.7976V20.4545H38.1897ZM35.7862 18.8864H36.7919V25.125C36.7919 25.4091 36.8331 25.6222 36.9155 25.7642C37.0007 25.9034 37.1087 25.9972 37.2394 26.0455C37.3729 26.0909 37.5135 26.1136 37.6612 26.1136C37.772 26.1136 37.8629 26.108 37.934 26.0966C38.005 26.0824 38.0618 26.071 38.1044 26.0625L38.309 26.9659C38.2408 26.9915 38.1456 27.017 38.0235 27.0426C37.9013 27.071 37.7465 27.0852 37.559 27.0852C37.2749 27.0852 36.9965 27.0241 36.7237 26.902C36.4539 26.7798 36.2294 26.5938 36.0504 26.3438C35.8743 26.0938 35.7862 25.7784 35.7862 25.3977V18.8864ZM44.5604 27L42.5661 20.4545H43.6229L45.0377 25.4659H45.1058L46.5036 20.4545H47.5774L48.9581 25.4489H49.0263L50.4411 20.4545H51.4979L49.5036 27H48.5149L47.0831 21.9716H46.9808L45.549 27H44.5604ZM52.8274 27V20.4545H53.8331V27H52.8274ZM53.3388 19.3636C53.1428 19.3636 52.9737 19.2969 52.8317 19.1634C52.6925 19.0298 52.6229 18.8693 52.6229 18.6818C52.6229 18.4943 52.6925 18.3338 52.8317 18.2003C52.9737 18.0668 53.1428 18 53.3388 18C53.5348 18 53.7024 18.0668 53.8416 18.2003C53.9837 18.3338 54.0547 18.4943 54.0547 18.6818C54.0547 18.8693 53.9837 19.0298 53.8416 19.1634C53.7024 19.2969 53.5348 19.3636 53.3388 19.3636ZM58.5217 20.4545V21.3068H55.1296V20.4545H58.5217ZM56.1183 18.8864H57.124V25.125C57.124 25.4091 57.1652 25.6222 57.2475 25.7642C57.3328 25.9034 57.4407 25.9972 57.5714 26.0455C57.7049 26.0909 57.8455 26.1136 57.9933 26.1136C58.1041 26.1136 58.195 26.108 58.266 26.0966C58.337 26.0824 58.3938 26.071 58.4365 26.0625L58.641 26.9659C58.5728 26.9915 58.4777 27.017 58.3555 27.0426C58.2333 27.071 58.0785 27.0852 57.891 27.0852C57.6069 27.0852 57.3285 27.0241 57.0558 26.902C56.7859 26.7798 56.5615 26.5938 56.3825 26.3438C56.2063 26.0938 56.1183 25.7784 56.1183 25.3977V18.8864ZM61.1808 23.0625V27H60.1751V18.2727H61.1808V21.4773H61.266C61.4194 21.1392 61.6495 20.8707 61.9563 20.6719C62.266 20.4702 62.6779 20.3693 63.1921 20.3693C63.6382 20.3693 64.0288 20.4588 64.364 20.6378C64.6992 20.8139 64.9592 21.0852 65.1438 21.4517C65.3313 21.8153 65.4251 22.2784 65.4251 22.8409V27H64.4194V22.9091C64.4194 22.3892 64.2845 21.9872 64.0146 21.7031C63.7475 21.4162 63.3768 21.2727 62.9024 21.2727C62.5728 21.2727 62.2774 21.3423 62.016 21.4815C61.7575 21.6207 61.5529 21.8239 61.4024 22.0909C61.2546 22.358 61.1808 22.6818 61.1808 23.0625ZM73.4865 20.4545V21.3068H70.0945V20.4545H73.4865ZM71.0831 18.8864H72.0888V25.125C72.0888 25.4091 72.13 25.6222 72.2124 25.7642C72.2976 25.9034 72.4056 25.9972 72.5362 26.0455C72.6698 26.0909 72.8104 26.1136 72.9581 26.1136C73.0689 26.1136 73.1598 26.108 73.2308 26.0966C73.3019 26.0824 73.3587 26.071 73.4013 26.0625L73.6058 26.9659C73.5377 26.9915 73.4425 27.017 73.3203 27.0426C73.1982 27.071 73.0433 27.0852 72.8558 27.0852C72.5718 27.0852 72.2933 27.0241 72.0206 26.902C71.7507 26.7798 71.5263 26.5938 71.3473 26.3438C71.1712 26.0938 71.0831 25.7784 71.0831 25.3977V18.8864ZM77.6733 27.1364C77.0426 27.1364 76.4986 26.9972 76.0412 26.7188C75.5867 26.4375 75.2358 26.0455 74.9887 25.5426C74.7443 25.0369 74.6222 24.4489 74.6222 23.7784C74.6222 23.108 74.7443 22.517 74.9887 22.0057C75.2358 21.4915 75.5796 21.0909 76.0199 20.804C76.4631 20.5142 76.9801 20.3693 77.571 20.3693C77.912 20.3693 78.2486 20.4261 78.581 20.5398C78.9134 20.6534 79.2159 20.8381 79.4887 21.0938C79.7614 21.3466 79.9787 21.6818 80.1406 22.0994C80.3026 22.517 80.3835 23.0312 80.3835 23.642V24.0682H75.3381V23.1989H79.3608C79.3608 22.8295 79.287 22.5 79.1392 22.2102C78.9943 21.9205 78.787 21.6918 78.5171 21.5241C78.25 21.3565 77.9347 21.2727 77.571 21.2727C77.1705 21.2727 76.8239 21.3722 76.5313 21.571C76.2415 21.767 76.0185 22.0227 75.8622 22.3381C75.706 22.6534 75.6279 22.9915 75.6279 23.3523V23.9318C75.6279 24.4261 75.7131 24.8452 75.8835 25.1889C76.0568 25.5298 76.2969 25.7898 76.6037 25.9688C76.9105 26.1449 77.2671 26.233 77.6733 26.233C77.9375 26.233 78.1762 26.196 78.3892 26.1222C78.6051 26.0455 78.7912 25.9318 78.9475 25.7812C79.1037 25.6278 79.2245 25.4375 79.3097 25.2102L80.2813 25.483C80.179 25.8125 80.0071 26.1023 79.7656 26.3523C79.5242 26.5994 79.2259 26.7926 78.8708 26.9318C78.5156 27.0682 78.1165 27.1364 77.6733 27.1364ZM82.4876 20.4545L84.0558 23.1307L85.624 20.4545H86.783L84.6694 23.7273L86.783 27H85.624L84.0558 24.4602L82.4876 27H81.3285L83.408 23.7273L81.3285 20.4545H82.4876ZM91.0647 20.4545V21.3068H87.6726V20.4545H91.0647ZM88.6612 18.8864H89.6669V25.125C89.6669 25.4091 89.7081 25.6222 89.7905 25.7642C89.8757 25.9034 89.9837 25.9972 90.1144 26.0455C90.2479 26.0909 90.3885 26.1136 90.5362 26.1136C90.647 26.1136 90.7379 26.108 90.809 26.0966C90.88 26.0824 90.9368 26.071 90.9794 26.0625L91.184 26.9659C91.1158 26.9915 91.0206 27.017 90.8985 27.0426C90.7763 27.071 90.6215 27.0852 90.434 27.0852C90.1499 27.0852 89.8715 27.0241 89.5987 26.902C89.3289 26.7798 89.1044 26.5938 88.9254 26.3438C88.7493 26.0938 88.6612 25.7784 88.6612 25.3977V18.8864Z" fill="black"/>
</svg>
