<svg width="36" height="36" viewBox="0 0 36 36" fill="none" xmlns="http://www.w3.org/2000/svg">
<g clip-path="url(#clip0_1_11)">
<rect x="-4" y="-4" width="50.4" height="50.4" fill="black"/>
<path d="M17.7985 12.8451C16.8188 12.8451 15.8611 13.1356 15.0465 13.6799C14.2319 14.2242 13.597 14.9978 13.2221 15.9029C12.8472 16.808 12.7491 17.8039 12.9403 18.7648C13.1314 19.7257 13.6032 20.6083 14.2959 21.301C14.9886 21.9938 15.8712 22.4655 16.8321 22.6566C17.793 22.8478 18.7889 22.7497 19.694 22.3748C20.5991 21.9999 21.3727 21.365 21.917 20.5504C22.4613 19.7358 22.7518 18.7781 22.7518 17.7985C22.7505 16.4852 22.2281 15.226 21.2995 14.2974C20.3709 13.3688 19.1117 12.8465 17.7985 12.8451ZM17.7985 21.1007C17.1453 21.1007 16.5069 20.907 15.9638 20.5442C15.4208 20.1813 14.9975 19.6656 14.7476 19.0622C14.4976 18.4588 14.4322 17.7948 14.5597 17.1542C14.6871 16.5136 15.0016 15.9252 15.4634 15.4634C15.9252 15.0016 16.5136 14.6871 17.1542 14.5597C17.7948 14.4322 18.4588 14.4976 19.0622 14.7476C19.6656 14.9975 20.1813 15.4208 20.5442 15.9638C20.907 16.5069 21.1007 17.1453 21.1007 17.7985C21.1007 18.6743 20.7528 19.5142 20.1335 20.1335C19.5142 20.7528 18.6743 21.1007 17.7985 21.1007ZM26.8796 18.0214C26.8838 17.8728 26.8838 17.7242 26.8796 17.5756L28.4193 15.652C28.5 15.551 28.5559 15.4325 28.5824 15.3059C28.609 15.1794 28.6054 15.0484 28.572 14.9234C28.3196 13.9747 27.9421 13.0637 27.4493 12.2146C27.3847 12.1034 27.2952 12.0089 27.1877 11.9385C27.0802 11.8681 26.9577 11.8238 26.8301 11.809L24.3823 11.5366C24.2805 11.4292 24.1773 11.3261 24.0727 11.227L23.7838 8.773C23.7689 8.64526 23.7244 8.52276 23.6538 8.41526C23.5832 8.30776 23.4885 8.21824 23.3772 8.15383C22.5277 7.66195 21.6168 7.28476 20.6683 7.0321C20.5433 6.99887 20.4123 6.99547 20.2857 7.02218C20.1592 7.04889 20.0407 7.10495 19.9398 7.18586L18.0214 8.71728C17.8728 8.71728 17.7242 8.71728 17.5756 8.71728L15.652 7.1807C15.551 7.09997 15.4325 7.04409 15.3059 7.01756C15.1794 6.99104 15.0484 6.9946 14.9234 7.02797C13.9748 7.28083 13.0639 7.65838 12.2146 8.15074C12.1034 8.21526 12.0089 8.30483 11.9385 8.41233C11.8681 8.51982 11.8238 8.64226 11.809 8.76991L11.5366 11.2218C11.4292 11.3243 11.3261 11.4275 11.227 11.5314L8.773 11.8131C8.64526 11.828 8.52276 11.8725 8.41526 11.9431C8.30776 12.0137 8.21824 12.1084 8.15383 12.2197C7.66195 13.0692 7.28476 13.9801 7.0321 14.9286C6.99887 15.0536 6.99547 15.1846 7.02218 15.3112C7.04889 15.4377 7.10495 15.5562 7.18586 15.6572L8.71728 17.5756C8.71728 17.7242 8.71728 17.8728 8.71728 18.0214L7.1807 19.9449C7.09997 20.0459 7.04409 20.1645 7.01756 20.291C6.99104 20.4175 6.9946 20.5486 7.02797 20.6735C7.28038 21.6222 7.65795 22.5332 8.15074 23.3823C8.21526 23.4935 8.30483 23.588 8.41233 23.6584C8.51982 23.7288 8.64226 23.7731 8.76991 23.7879L11.2177 24.0603C11.3202 24.1677 11.4234 24.2709 11.5273 24.3699L11.8131 26.8239C11.828 26.9516 11.8725 27.0741 11.9431 27.1816C12.0137 27.2891 12.1084 27.3787 12.2197 27.4431C13.0692 27.935 13.9801 28.3121 14.9286 28.5648C15.0536 28.598 15.1846 28.6014 15.3112 28.5747C15.4377 28.548 15.5562 28.4919 15.6572 28.411L17.5756 26.8796C17.7242 26.8838 17.8728 26.8838 18.0214 26.8796L19.9449 28.4193C20.0459 28.5 20.1645 28.5559 20.291 28.5824C20.4175 28.609 20.5486 28.6054 20.6735 28.572C21.6222 28.3196 22.5332 27.9421 23.3823 27.4493C23.4935 27.3847 23.588 27.2952 23.6584 27.1877C23.7288 27.0802 23.7731 26.9577 23.7879 26.8301L24.0603 24.3823C24.1677 24.2805 24.2709 24.1773 24.3699 24.0727L26.8239 23.7838C26.9516 23.7689 27.0741 23.7244 27.1816 23.6538C27.2891 23.5832 27.3787 23.4885 27.4431 23.3772C27.935 22.5277 28.3121 21.6168 28.5648 20.6683C28.598 20.5433 28.6014 20.4123 28.5747 20.2857C28.548 20.1592 28.4919 20.0407 28.411 19.9398L26.8796 18.0214ZM25.2182 17.3506C25.2357 17.6489 25.2357 17.948 25.2182 18.2463C25.2059 18.4506 25.2699 18.6521 25.3977 18.8118L26.8621 20.6415C26.6941 21.1755 26.4789 21.6935 26.2192 22.1894L23.887 22.4536C23.6839 22.4761 23.4963 22.5732 23.3607 22.726C23.162 22.9494 22.9505 23.161 22.7271 23.3596C22.5742 23.4953 22.4772 23.6828 22.4546 23.8859L22.1956 26.2161C21.6997 26.4759 21.1817 26.6911 20.6477 26.859L18.817 25.3946C18.6705 25.2776 18.4885 25.2139 18.301 25.2141H18.2515C17.9532 25.2316 17.6541 25.2316 17.3557 25.2141C17.1515 25.2018 16.95 25.2658 16.7902 25.3936L14.9554 26.859C14.4214 26.691 13.9034 26.4758 13.4075 26.2161L13.1433 23.887C13.1208 23.6839 13.0237 23.4963 12.8709 23.3607C12.6475 23.162 12.4359 22.9505 12.2373 22.7271C12.1016 22.5742 11.9141 22.4772 11.711 22.4546L9.38082 22.1946C9.12097 21.6987 8.90582 21.1807 8.73792 20.6466L10.2023 18.816C10.3301 18.6562 10.3941 18.4547 10.3818 18.2504C10.3643 17.9521 10.3643 17.653 10.3818 17.3547C10.3941 17.1505 10.3301 16.9489 10.2023 16.7892L8.73792 14.9554C8.90595 14.4214 9.12109 13.9034 9.38082 13.4075L11.7099 13.1433C11.913 13.1208 12.1006 13.0237 12.2362 12.8709C12.4349 12.6475 12.6464 12.4359 12.8699 12.2373C13.0233 12.1015 13.1207 11.9136 13.1433 11.7099L13.4023 9.38082C13.8982 9.12097 14.4162 8.90582 14.9503 8.73792L16.7809 10.2023C16.9407 10.3301 17.1422 10.3941 17.3465 10.3818C17.6448 10.3643 17.9439 10.3643 18.2422 10.3818C18.4464 10.3941 18.648 10.3301 18.8077 10.2023L20.6415 8.73792C21.1755 8.90595 21.6935 9.12109 22.1894 9.38082L22.4536 11.7099C22.4761 11.913 22.5732 12.1006 22.726 12.2362C22.9494 12.4349 23.161 12.6464 23.3596 12.8699C23.4953 13.0227 23.6828 13.1197 23.8859 13.1423L26.2161 13.4013C26.4759 13.8972 26.6911 14.4152 26.859 14.9492L25.3946 16.7799C25.2656 16.941 25.2015 17.1446 25.2151 17.3506H25.2182Z" fill="white"/>
</g>
<defs>
<clipPath id="clip0_1_11">
<rect width="36" height="36" rx="4" fill="white"/>
</clipPath>
</defs>
</svg>
